# xmcd
#
# Track frame offsets:
#	150
#	15825
#	31828
#	47789
#	63788
#	80022
#	96727
#	109133
#	125054
#	139980
#	156414
#	171820
#	189163
#	204165
#	219450
#	234489
#	248616
#	262444
#	275834
#	294146
#
# Disc length: 4077 seconds
# Revision: 0
# Processed by: cddbd v1.5.2PL0 Copyright (c) Steve Scherf et al.
# Submitted via: dBpowerAMP V12.0
#
DISCID=240feb14
DTITLE=Various Artist - Country Radio December 2011
DYEAR=2011
DGENRE=Country
TTITLE0=Kenny Chesney - Reality
TTITLE1=Brad Paisley - Camouflage
TTITLE2=Keitg Urban - You Gonna Fly
TTITLE3=Paul Brandt - Together Again
TTITLE4=Blake Shelton - Footloose
TTITLE5=Terri Clark - The One
TTITLE6=Billy Currington - Like My Dog
TTITLE7=Jake Owen - Alone With You
TTITLE8=Aaron Lines - Sunday Afternoon
TTITLE9=Toby Keith - Red Solo Cup
TTITLE10=Lee Brice - A Woman Like You
TTITLE11=Chris Cagle - Got My Country On
TTITLE12=Jake Matthews - Might Take All Night
TTITLE13=Casey James - Let's Don't Call It A Night
TTITLE14=Montgomery Gentry - Where I Come From
TTITLE15=Rodney Atkins - He's Mine
TTITLE16=Phil Vassa - Let's Get Together
TTITLE17=Sunny Sweeney - Drink Myself Single
TTITLE18=Victoria Banks - Never Be The Same
TTITLE19=Chad Brownlee - Christmas Baby Please Come Home
EXTD=
EXTT0=
EXTT1=
EXTT2=
EXTT3=
EXTT4=
EXTT5=
EXTT6=
EXTT7=
EXTT8=
EXTT9=
EXTT10=
EXTT11=
EXTT12=
EXTT13=
EXTT14=
EXTT15=
EXTT16=
EXTT17=
EXTT18=
EXTT19=
PLAYORDER=
